<svg width="425" height="108" viewBox="0 0 425 108" fill="none" xmlns="http://www.w3.org/2000/svg">
<path d="M37.38 75.4H48.048V77.472H39.704V83.884H47.348V85.956H39.704V92.928H48.188V95H37.38V75.4ZM54.1837 81V88.98C54.1837 89.708 54.2211 90.352 54.2957 90.912C54.3891 91.4533 54.5384 91.9107 54.7437 92.284C54.9491 92.6387 55.2291 92.9093 55.5837 93.096C55.9384 93.2827 56.3864 93.376 56.9277 93.376C57.4317 93.376 57.8797 93.3013 58.2717 93.152C58.6637 92.984 59.0091 92.76 59.3077 92.48C59.6251 92.2 59.8957 91.8827 60.1197 91.528C60.3624 91.1547 60.5584 90.7627 60.7077 90.352V81H62.9477V91.024C62.9477 91.696 62.9664 92.396 63.0037 93.124C63.0597 93.8333 63.1437 94.4587 63.2557 95H61.7157L61.1557 92.788H61.0157C60.5864 93.516 60.0077 94.1227 59.2797 94.608C58.5517 95.0933 57.6277 95.336 56.5077 95.336C55.7611 95.336 55.0984 95.2427 54.5197 95.056C53.9597 94.888 53.4837 94.58 53.0917 94.132C52.7184 93.684 52.4291 93.0867 52.2237 92.34C52.0371 91.5747 51.9437 90.6133 51.9437 89.456V81H54.1837ZM73.8695 83.156C73.3095 82.9693 72.7775 82.876 72.2735 82.876C71.4708 82.876 70.8361 83.1 70.3695 83.548C69.9028 83.9773 69.6135 84.528 69.5015 85.2V95H67.2615V81H68.8295L69.2495 82.708H69.3615C69.7161 82.0733 70.1361 81.588 70.6215 81.252C71.1255 80.8973 71.7601 80.72 72.5255 80.72C73.0668 80.72 73.6735 80.8133 74.3455 81L73.8695 83.156ZM75.9931 88C75.9931 85.6293 76.5158 83.8187 77.5611 82.568C78.6251 81.2987 80.1464 80.664 82.1251 80.664C83.1704 80.664 84.0758 80.8413 84.8411 81.196C85.6251 81.532 86.2691 82.0267 86.7731 82.68C87.2771 83.3147 87.6504 84.0893 87.8931 85.004C88.1358 85.9 88.2571 86.8987 88.2571 88C88.2571 90.3707 87.7251 92.1907 86.6611 93.46C85.6158 94.7107 84.1038 95.336 82.1251 95.336C81.0798 95.336 80.1651 95.168 79.3811 94.832C78.6158 94.4773 77.9811 93.9827 77.4771 93.348C76.9731 92.6947 76.5998 91.92 76.3571 91.024C76.1144 90.1093 75.9931 89.1013 75.9931 88ZM78.3171 88C78.3171 88.7093 78.3824 89.3907 78.5131 90.044C78.6624 90.6973 78.8864 91.2667 79.1851 91.752C79.4838 92.2373 79.8758 92.6293 80.3611 92.928C80.8464 93.2267 81.4344 93.376 82.1251 93.376C84.6638 93.3947 85.9331 91.6027 85.9331 88C85.9331 87.272 85.8584 86.5813 85.7091 85.928C85.5784 85.2747 85.3638 84.7053 85.0651 84.22C84.7664 83.7347 84.3744 83.352 83.8891 83.072C83.4038 82.7733 82.8158 82.624 82.1251 82.624C79.5864 82.6053 78.3171 84.3973 78.3171 88ZM91.7888 81H93.3288L93.7488 82.68H93.8608C94.2901 82.0267 94.8408 81.532 95.5128 81.196C96.2035 80.8413 96.9875 80.664 97.8648 80.664C99.7315 80.664 101.122 81.2147 102.037 82.316C102.951 83.4173 103.409 85.2187 103.409 87.72C103.409 88.896 103.25 89.96 102.933 90.912C102.634 91.8453 102.205 92.6387 101.645 93.292C101.085 93.9453 100.403 94.4493 99.6008 94.804C98.8168 95.1587 97.9395 95.336 96.9688 95.336C96.2781 95.336 95.7275 95.2893 95.3168 95.196C94.9248 95.1213 94.4955 94.9813 94.0288 94.776V100.6H91.7888V81ZM97.4448 82.624C96.4928 82.624 95.7368 82.876 95.1768 83.38C94.6355 83.8653 94.2528 84.612 94.0288 85.62V92.564C94.3648 92.8253 94.7475 93.0307 95.1768 93.18C95.6061 93.3107 96.1755 93.376 96.8848 93.376C98.1728 93.376 99.1901 92.9 99.9368 91.948C100.702 90.9773 101.085 89.5587 101.085 87.692C101.085 86.9267 101.019 86.236 100.889 85.62C100.758 84.9853 100.543 84.4533 100.245 84.024C99.9648 83.576 99.5915 83.2307 99.1248 82.988C98.6768 82.7453 98.1168 82.624 97.4448 82.624ZM117.157 93.88C116.597 94.328 115.888 94.6827 115.029 94.944C114.189 95.2053 113.293 95.336 112.341 95.336C111.277 95.336 110.353 95.168 109.569 94.832C108.785 94.4773 108.141 93.9827 107.637 93.348C107.133 92.6947 106.76 91.92 106.517 91.024C106.275 90.128 106.153 89.12 106.153 88C106.153 85.6107 106.685 83.7907 107.749 82.54C108.813 81.2893 110.335 80.664 112.313 80.664C112.948 80.664 113.583 80.7387 114.217 80.888C114.852 81.0187 115.421 81.28 115.925 81.672C116.429 82.064 116.84 82.624 117.157 83.352C117.475 84.0613 117.633 85.004 117.633 86.18C117.633 86.796 117.577 87.4773 117.465 88.224H108.477C108.477 89.0453 108.561 89.7733 108.729 90.408C108.897 91.0427 109.159 91.584 109.513 92.032C109.868 92.4613 110.325 92.7973 110.885 93.04C111.464 93.264 112.164 93.376 112.985 93.376C113.62 93.376 114.255 93.264 114.889 93.04C115.524 92.816 116 92.5547 116.317 92.256L117.157 93.88ZM112.341 82.624C111.24 82.624 110.353 82.9133 109.681 83.492C109.028 84.0707 108.636 85.06 108.505 86.46H115.449C115.449 85.0413 115.179 84.052 114.637 83.492C114.096 82.9133 113.331 82.624 112.341 82.624ZM120.932 82.036C121.641 81.6067 122.463 81.2893 123.396 81.084C124.348 80.8787 125.337 80.776 126.364 80.776C127.335 80.776 128.109 80.9067 128.688 81.168C129.285 81.4293 129.733 81.7747 130.032 82.204C130.349 82.6147 130.555 83.072 130.648 83.576C130.76 84.08 130.816 84.584 130.816 85.088C130.816 86.208 130.788 87.3 130.732 88.364C130.676 89.428 130.648 90.436 130.648 91.388C130.648 92.0787 130.676 92.732 130.732 93.348C130.788 93.964 130.891 94.5333 131.04 95.056H129.388L128.8 93.096H128.66C128.492 93.3573 128.277 93.6187 128.016 93.88C127.773 94.1227 127.475 94.3467 127.12 94.552C126.765 94.7387 126.355 94.8973 125.888 95.028C125.421 95.1587 124.889 95.224 124.292 95.224C123.695 95.224 123.135 95.1307 122.612 94.944C122.108 94.7573 121.669 94.496 121.296 94.16C120.923 93.8053 120.624 93.3853 120.4 92.9C120.195 92.4147 120.092 91.864 120.092 91.248C120.092 90.4267 120.26 89.7453 120.596 89.204C120.932 88.644 121.399 88.2053 121.996 87.888C122.612 87.552 123.34 87.3187 124.18 87.188C125.039 87.0387 125.981 86.964 127.008 86.964C127.269 86.964 127.521 86.964 127.764 86.964C128.025 86.964 128.287 86.9827 128.548 87.02C128.604 86.46 128.632 85.956 128.632 85.508C128.632 84.4813 128.427 83.7627 128.016 83.352C127.605 82.9413 126.859 82.736 125.776 82.736C125.459 82.736 125.113 82.764 124.74 82.82C124.385 82.8573 124.012 82.9227 123.62 83.016C123.247 83.0907 122.883 83.1933 122.528 83.324C122.192 83.436 121.893 83.5667 121.632 83.716L120.932 82.036ZM124.908 93.264C125.431 93.264 125.897 93.1987 126.308 93.068C126.719 92.9187 127.073 92.7413 127.372 92.536C127.671 92.312 127.913 92.0693 128.1 91.808C128.305 91.5467 128.455 91.2947 128.548 91.052V88.728C128.287 88.7093 128.016 88.7 127.736 88.7C127.475 88.6813 127.213 88.672 126.952 88.672C126.373 88.672 125.804 88.7093 125.244 88.784C124.703 88.84 124.217 88.9613 123.788 89.148C123.377 89.316 123.041 89.5587 122.78 89.876C122.537 90.1747 122.416 90.5573 122.416 91.024C122.416 91.6773 122.649 92.2187 123.116 92.648C123.583 93.0587 124.18 93.264 124.908 93.264ZM144.035 95V87.02C144.035 85.564 143.82 84.472 143.391 83.744C142.98 82.9973 142.215 82.624 141.095 82.624C140.105 82.624 139.284 82.8947 138.631 83.436C137.996 83.9587 137.548 84.6213 137.287 85.424V95H135.047V81H136.615L137.035 82.708H137.147C137.595 82.1107 138.192 81.6253 138.939 81.252C139.704 80.86 140.609 80.664 141.655 80.664C142.42 80.664 143.092 80.7573 143.671 80.944C144.249 81.112 144.725 81.42 145.099 81.868C145.491 82.316 145.78 82.9227 145.967 83.688C146.172 84.4347 146.275 85.3867 146.275 86.544V95H144.035ZM161.364 88.532L161.812 91.78H161.84L162.316 88.476L166.348 75.4H167.468L171.528 88.532L172.004 91.78H172.032L172.536 88.476L175.84 75.4H178.108L172.648 95.308H171.36L167.384 82.176L166.88 79.208H166.74L166.236 82.204L162.26 95.308H160.972L155.372 75.4H157.836L161.364 88.532ZM180.968 81H183.208V95H180.968V81ZM180.492 76.744C180.492 76.3147 180.632 75.9507 180.912 75.652C181.211 75.3347 181.584 75.176 182.032 75.176C182.48 75.176 182.863 75.3347 183.18 75.652C183.497 75.9507 183.656 76.3147 183.656 76.744C183.656 77.1733 183.497 77.528 183.18 77.808C182.863 78.088 182.48 78.228 182.032 78.228C181.584 78.228 181.211 78.088 180.912 77.808C180.632 77.528 180.492 77.1733 180.492 76.744ZM198.736 90.184C198.736 91.136 198.745 92.004 198.764 92.788C198.783 93.5533 198.867 94.3093 199.016 95.056H197.504L196.944 93.068H196.832C196.459 93.7213 195.917 94.2627 195.208 94.692C194.499 95.1213 193.668 95.336 192.716 95.336C190.849 95.336 189.459 94.748 188.544 93.572C187.648 92.396 187.2 90.5573 187.2 88.056C187.2 85.6667 187.76 83.856 188.88 82.624C190.019 81.3733 191.577 80.748 193.556 80.748C194.247 80.748 194.788 80.7853 195.18 80.86C195.591 80.9347 196.029 81.056 196.496 81.224V75.4H198.736V90.184ZM193.08 93.376C194.032 93.376 194.788 93.1333 195.348 92.648C195.908 92.144 196.291 91.388 196.496 90.38V83.436C196.16 83.1747 195.777 82.988 195.348 82.876C194.919 82.764 194.349 82.708 193.64 82.708C192.352 82.708 191.344 83.1373 190.616 83.996C189.888 84.836 189.524 86.1893 189.524 88.056C189.524 88.8213 189.58 89.5307 189.692 90.184C189.823 90.8373 190.028 91.3973 190.308 91.864C190.588 92.3307 190.952 92.704 191.4 92.984C191.867 93.2453 192.427 93.376 193.08 93.376ZM213.271 93.88C212.711 94.328 212.001 94.6827 211.143 94.944C210.303 95.2053 209.407 95.336 208.455 95.336C207.391 95.336 206.467 95.168 205.683 94.832C204.899 94.4773 204.255 93.9827 203.751 93.348C203.247 92.6947 202.873 91.92 202.631 91.024C202.388 90.128 202.267 89.12 202.267 88C202.267 85.6107 202.799 83.7907 203.863 82.54C204.927 81.2893 206.448 80.664 208.427 80.664C209.061 80.664 209.696 80.7387 210.331 80.888C210.965 81.0187 211.535 81.28 212.039 81.672C212.543 82.064 212.953 82.624 213.271 83.352C213.588 84.0613 213.747 85.004 213.747 86.18C213.747 86.796 213.691 87.4773 213.579 88.224H204.591C204.591 89.0453 204.675 89.7733 204.843 90.408C205.011 91.0427 205.272 91.584 205.627 92.032C205.981 92.4613 206.439 92.7973 206.999 93.04C207.577 93.264 208.277 93.376 209.099 93.376C209.733 93.376 210.368 93.264 211.003 93.04C211.637 92.816 212.113 92.5547 212.431 92.256L213.271 93.88ZM208.455 82.624C207.353 82.624 206.467 82.9133 205.795 83.492C205.141 84.0707 204.749 85.06 204.619 86.46H211.563C211.563 85.0413 211.292 84.052 210.751 83.492C210.209 82.9133 209.444 82.624 208.455 82.624ZM236.69 86.012H227.282V95H224.958V75.4H227.282V83.94H236.69V75.4H239.014V95H236.69V86.012ZM243.323 82.036C244.032 81.6067 244.853 81.2893 245.787 81.084C246.739 80.8787 247.728 80.776 248.755 80.776C249.725 80.776 250.5 80.9067 251.079 81.168C251.676 81.4293 252.124 81.7747 252.423 82.204C252.74 82.6147 252.945 83.072 253.039 83.576C253.151 84.08 253.207 84.584 253.207 85.088C253.207 86.208 253.179 87.3 253.123 88.364C253.067 89.428 253.039 90.436 253.039 91.388C253.039 92.0787 253.067 92.732 253.123 93.348C253.179 93.964 253.281 94.5333 253.431 95.056H251.779L251.191 93.096H251.051C250.883 93.3573 250.668 93.6187 250.407 93.88C250.164 94.1227 249.865 94.3467 249.511 94.552C249.156 94.7387 248.745 94.8973 248.279 95.028C247.812 95.1587 247.28 95.224 246.683 95.224C246.085 95.224 245.525 95.1307 245.003 94.944C244.499 94.7573 244.06 94.496 243.687 94.16C243.313 93.8053 243.015 93.3853 242.791 92.9C242.585 92.4147 242.483 91.864 242.483 91.248C242.483 90.4267 242.651 89.7453 242.987 89.204C243.323 88.644 243.789 88.2053 244.387 87.888C245.003 87.552 245.731 87.3187 246.571 87.188C247.429 87.0387 248.372 86.964 249.399 86.964C249.66 86.964 249.912 86.964 250.155 86.964C250.416 86.964 250.677 86.9827 250.939 87.02C250.995 86.46 251.023 85.956 251.023 85.508C251.023 84.4813 250.817 83.7627 250.407 83.352C249.996 82.9413 249.249 82.736 248.167 82.736C247.849 82.736 247.504 82.764 247.131 82.82C246.776 82.8573 246.403 82.9227 246.011 83.016C245.637 83.0907 245.273 83.1933 244.919 83.324C244.583 83.436 244.284 83.5667 244.023 83.716L243.323 82.036ZM247.299 93.264C247.821 93.264 248.288 93.1987 248.699 93.068C249.109 92.9187 249.464 92.7413 249.763 92.536C250.061 92.312 250.304 92.0693 250.491 91.808C250.696 91.5467 250.845 91.2947 250.939 91.052V88.728C250.677 88.7093 250.407 88.7 250.127 88.7C249.865 88.6813 249.604 88.672 249.343 88.672C248.764 88.672 248.195 88.7093 247.635 88.784C247.093 88.84 246.608 88.9613 246.179 89.148C245.768 89.316 245.432 89.5587 245.171 89.876C244.928 90.1747 244.807 90.5573 244.807 91.024C244.807 91.6773 245.04 92.2187 245.507 92.648C245.973 93.0587 246.571 93.264 247.299 93.264ZM266.985 94.076C266.425 94.4867 265.763 94.7947 264.997 95C264.232 95.224 263.429 95.336 262.589 95.336C261.507 95.336 260.592 95.168 259.845 94.832C259.099 94.4773 258.483 93.9827 257.997 93.348C257.531 92.6947 257.185 91.92 256.961 91.024C256.756 90.1093 256.653 89.1013 256.653 88C256.653 85.6293 257.176 83.8187 258.221 82.568C259.267 81.2987 260.769 80.664 262.729 80.664C263.625 80.664 264.381 80.7387 264.997 80.888C265.632 81.0187 266.201 81.2147 266.705 81.476L266.061 83.408C265.632 83.1653 265.156 82.9787 264.633 82.848C264.111 82.6987 263.551 82.624 262.953 82.624C260.303 82.624 258.977 84.416 258.977 88C258.977 88.7093 259.043 89.3907 259.173 90.044C259.323 90.6787 259.556 91.248 259.873 91.752C260.209 92.2373 260.639 92.6293 261.161 92.928C261.703 93.2267 262.365 93.376 263.149 93.376C263.821 93.376 264.419 93.2733 264.941 93.068C265.483 92.8627 265.921 92.6293 266.257 92.368L266.985 94.076ZM273.598 88.7H272.31V95H270.07V75.4H272.31V87.328L273.458 86.936L277.798 81H280.402L276.118 86.628L274.97 87.552L276.37 88.672L281.046 95H278.274L273.598 88.7ZM283.245 82.036C283.954 81.6067 284.775 81.2893 285.709 81.084C286.661 80.8787 287.65 80.776 288.677 80.776C289.647 80.776 290.422 80.9067 291.001 81.168C291.598 81.4293 292.046 81.7747 292.345 82.204C292.662 82.6147 292.867 83.072 292.961 83.576C293.073 84.08 293.129 84.584 293.129 85.088C293.129 86.208 293.101 87.3 293.045 88.364C292.989 89.428 292.961 90.436 292.961 91.388C292.961 92.0787 292.989 92.732 293.045 93.348C293.101 93.964 293.203 94.5333 293.353 95.056H291.701L291.113 93.096H290.973C290.805 93.3573 290.59 93.6187 290.329 93.88C290.086 94.1227 289.787 94.3467 289.433 94.552C289.078 94.7387 288.667 94.8973 288.201 95.028C287.734 95.1587 287.202 95.224 286.605 95.224C286.007 95.224 285.447 95.1307 284.925 94.944C284.421 94.7573 283.982 94.496 283.609 94.16C283.235 93.8053 282.937 93.3853 282.713 92.9C282.507 92.4147 282.405 91.864 282.405 91.248C282.405 90.4267 282.573 89.7453 282.909 89.204C283.245 88.644 283.711 88.2053 284.309 87.888C284.925 87.552 285.653 87.3187 286.493 87.188C287.351 87.0387 288.294 86.964 289.321 86.964C289.582 86.964 289.834 86.964 290.077 86.964C290.338 86.964 290.599 86.9827 290.861 87.02C290.917 86.46 290.945 85.956 290.945 85.508C290.945 84.4813 290.739 83.7627 290.329 83.352C289.918 82.9413 289.171 82.736 288.089 82.736C287.771 82.736 287.426 82.764 287.053 82.82C286.698 82.8573 286.325 82.9227 285.933 83.016C285.559 83.0907 285.195 83.1933 284.841 83.324C284.505 83.436 284.206 83.5667 283.945 83.716L283.245 82.036ZM287.221 93.264C287.743 93.264 288.21 93.1987 288.621 93.068C289.031 92.9187 289.386 92.7413 289.685 92.536C289.983 92.312 290.226 92.0693 290.413 91.808C290.618 91.5467 290.767 91.2947 290.861 91.052V88.728C290.599 88.7093 290.329 88.7 290.049 88.7C289.787 88.6813 289.526 88.672 289.265 88.672C288.686 88.672 288.117 88.7093 287.557 88.784C287.015 88.84 286.53 88.9613 286.101 89.148C285.69 89.316 285.354 89.5587 285.093 89.876C284.85 90.1747 284.729 90.5573 284.729 91.024C284.729 91.6773 284.962 92.2187 285.428 92.648C285.895 93.0587 286.493 93.264 287.221 93.264ZM295.511 81H297.695V78.228L299.935 77.584V81H303.743V82.96H299.935V90.716C299.935 91.6867 300.056 92.3773 300.299 92.788C300.542 93.18 300.952 93.376 301.531 93.376C302.016 93.376 302.427 93.3293 302.763 93.236C303.099 93.124 303.472 92.984 303.883 92.816L304.387 94.524C303.883 94.7667 303.332 94.9627 302.735 95.112C302.138 95.2613 301.494 95.336 300.803 95.336C299.664 95.336 298.862 95.0187 298.395 94.384C297.928 93.7307 297.695 92.648 297.695 91.136V82.96H295.511V81ZM315.835 95V87.02C315.835 86.292 315.789 85.6573 315.695 85.116C315.621 84.556 315.471 84.0987 315.247 83.744C315.023 83.3707 314.715 83.0907 314.323 82.904C313.95 82.7173 313.455 82.624 312.839 82.624C311.962 82.624 311.169 82.9133 310.459 83.492C309.75 84.052 309.293 84.78 309.087 85.676V95H306.847V75.4H309.087V82.568H309.199C309.685 81.9893 310.263 81.532 310.935 81.196C311.626 80.8413 312.475 80.664 313.483 80.664C314.267 80.664 314.949 80.7573 315.527 80.944C316.106 81.112 316.582 81.42 316.955 81.868C317.347 82.316 317.627 82.9227 317.795 83.688C317.982 84.4347 318.075 85.3867 318.075 86.544V95H315.835ZM321.376 88C321.376 85.6293 321.899 83.8187 322.944 82.568C324.008 81.2987 325.529 80.664 327.508 80.664C328.553 80.664 329.459 80.8413 330.224 81.196C331.008 81.532 331.652 82.0267 332.156 82.68C332.66 83.3147 333.033 84.0893 333.276 85.004C333.519 85.9 333.64 86.8987 333.64 88C333.64 90.3707 333.108 92.1907 332.044 93.46C330.999 94.7107 329.487 95.336 327.508 95.336C326.463 95.336 325.548 95.168 324.764 94.832C323.999 94.4773 323.364 93.9827 322.86 93.348C322.356 92.6947 321.983 91.92 321.74 91.024C321.497 90.1093 321.376 89.1013 321.376 88ZM323.7 88C323.7 88.7093 323.765 89.3907 323.896 90.044C324.045 90.6973 324.269 91.2667 324.568 91.752C324.867 92.2373 325.259 92.6293 325.744 92.928C326.229 93.2267 326.817 93.376 327.508 93.376C330.047 93.3947 331.316 91.6027 331.316 88C331.316 87.272 331.241 86.5813 331.092 85.928C330.961 85.2747 330.747 84.7053 330.448 84.22C330.149 83.7347 329.757 83.352 329.272 83.072C328.787 82.7733 328.199 82.624 327.508 82.624C324.969 82.6053 323.7 84.3973 323.7 88ZM346.16 95V87.02C346.16 85.564 345.945 84.472 345.516 83.744C345.105 82.9973 344.34 82.624 343.22 82.624C342.23 82.624 341.409 82.8947 340.756 83.436C340.121 83.9587 339.673 84.6213 339.412 85.424V95H337.172V81H338.74L339.16 82.708H339.272C339.72 82.1107 340.317 81.6253 341.064 81.252C341.829 80.86 342.734 80.664 343.78 80.664C344.545 80.664 345.217 80.7573 345.796 80.944C346.374 81.112 346.85 81.42 347.224 81.868C347.616 82.316 347.905 82.9227 348.092 83.688C348.297 84.4347 348.4 85.3867 348.4 86.544V95H346.16Z" fill="#222121"/>
<path d="M17.34 48.7H12L9.84 57.94H3.42L5.58 48.7H1.14L2.46 42.88H6.96L8.46 36.52H4.14L5.46 30.7H9.84L11.94 22.06H18.3L16.26 30.7H21.6L23.7 22.06H30.06L28.02 30.7H32.34L30.84 36.52H26.64L25.14 42.88H29.28L27.84 48.7H23.76L21.6 57.94H15.18L17.34 48.7ZM13.38 42.88H18.72L20.22 36.52H14.88L13.38 42.88ZM37.643 19H62.543V26.32H45.863V36.1H61.043V43.42H45.863V53.68H62.843V61H37.643V19ZM91.7906 19H99.5906V46.12C99.5906 48.84 99.2306 51.18 98.5106 53.14C97.7906 55.1 96.7906 56.72 95.5106 58C94.2306 59.28 92.6706 60.22 90.8306 60.82C88.9906 61.42 86.9706 61.72 84.7706 61.72C74.1306 61.72 68.8106 56.86 68.8106 47.14V19H77.0306V45.52C77.0306 47.16 77.1706 48.56 77.4506 49.72C77.7706 50.84 78.2506 51.76 78.8906 52.48C79.5306 53.16 80.3306 53.66 81.2906 53.98C82.2506 54.26 83.3706 54.4 84.6506 54.4C87.1706 54.4 88.9906 53.7 90.1106 52.3C91.2306 50.9 91.7906 48.64 91.7906 45.52V19ZM124.788 61V43.96C124.788 41.52 124.428 39.76 123.708 38.68C123.028 37.6 121.848 37.06 120.168 37.06C118.688 37.06 117.428 37.5 116.388 38.38C115.388 39.22 114.668 40.28 114.228 41.56V61H106.428V31H112.608L113.508 34.96H113.748C114.668 33.68 115.888 32.56 117.408 31.6C118.928 30.64 120.888 30.16 123.288 30.16C124.768 30.16 126.088 30.36 127.248 30.76C128.408 31.16 129.388 31.82 130.188 32.74C130.988 33.66 131.588 34.92 131.988 36.52C132.388 38.08 132.588 40.02 132.588 42.34V61H124.788ZM139.783 31H147.583V61H139.783V31ZM138.643 22.54C138.643 21.38 139.063 20.4 139.903 19.6C140.783 18.76 141.983 18.34 143.503 18.34C145.023 18.34 146.243 18.76 147.163 19.6C148.123 20.4 148.603 21.38 148.603 22.54C148.603 23.7 148.123 24.68 147.163 25.48C146.243 26.24 145.023 26.62 143.503 26.62C141.983 26.62 140.783 26.24 139.903 25.48C139.063 24.68 138.643 23.7 138.643 22.54ZM152.116 31H156.256V25.36L164.056 23.14V31H171.376V37.6H164.056V49.12C164.056 51.2 164.256 52.7 164.656 53.62C165.096 54.5 165.896 54.94 167.056 54.94C167.856 54.94 168.536 54.86 169.096 54.7C169.696 54.54 170.356 54.3 171.076 53.98L172.456 59.98C171.376 60.5 170.116 60.94 168.676 61.3C167.236 61.66 165.776 61.84 164.296 61.84C161.536 61.84 159.496 61.14 158.176 59.74C156.896 58.3 156.256 55.96 156.256 52.72V37.6H152.116V31ZM199.861 58.42C198.661 59.38 197.021 60.2 194.941 60.88C192.901 61.52 190.721 61.84 188.401 61.84C183.561 61.84 180.021 60.44 177.781 57.64C175.541 54.8 174.421 50.92 174.421 46C174.421 40.72 175.681 36.76 178.201 34.12C180.721 31.48 184.261 30.16 188.821 30.16C190.341 30.16 191.821 30.36 193.261 30.76C194.701 31.16 195.981 31.82 197.101 32.74C198.221 33.66 199.121 34.9 199.801 36.46C200.481 38.02 200.821 39.96 200.821 42.28C200.821 43.12 200.761 44.02 200.641 44.98C200.561 45.94 200.421 46.94 200.221 47.98H182.221C182.341 50.5 182.981 52.4 184.141 53.68C185.341 54.96 187.261 55.6 189.901 55.6C191.541 55.6 193.001 55.36 194.281 54.88C195.601 54.36 196.601 53.84 197.281 53.32L199.861 58.42ZM188.701 36.4C186.661 36.4 185.141 37.02 184.141 38.26C183.181 39.46 182.601 41.08 182.401 43.12H193.561C193.721 40.96 193.381 39.3 192.541 38.14C191.741 36.98 190.461 36.4 188.701 36.4ZM231.83 50.44C231.83 52.12 231.85 53.8 231.89 55.48C231.93 57.16 232.11 59.02 232.43 61.06H226.85L225.77 57.16H225.53C224.73 58.56 223.57 59.7 222.05 60.58C220.57 61.42 218.81 61.84 216.77 61.84C213.01 61.84 210.09 60.6 208.01 58.12C205.93 55.64 204.89 51.76 204.89 46.48C204.89 41.36 206.05 37.38 208.37 34.54C210.69 31.7 214.09 30.28 218.57 30.28C219.81 30.28 220.83 30.36 221.63 30.52C222.43 30.64 223.23 30.86 224.03 31.18V19H231.83V50.44ZM218.57 55.24C220.09 55.24 221.29 54.88 222.17 54.16C223.05 53.4 223.67 52.32 224.03 50.92V38.2C223.47 37.76 222.85 37.44 222.17 37.24C221.49 37 220.61 36.88 219.53 36.88C217.33 36.88 215.67 37.62 214.55 39.1C213.47 40.58 212.93 43.12 212.93 46.72C212.93 49.28 213.37 51.34 214.25 52.9C215.17 54.46 216.61 55.24 218.57 55.24ZM249.054 46.72L250.074 51.34H250.374L251.214 46.6L256.314 31H264.714L252.174 61.3H247.434L234.414 31H243.474L249.054 46.72ZM279.688 52.72C279.688 51.92 279.348 51.28 278.668 50.8C277.988 50.32 277.148 49.88 276.148 49.48C275.148 49.08 274.048 48.68 272.848 48.28C271.648 47.84 270.548 47.26 269.548 46.54C268.548 45.78 267.708 44.84 267.028 43.72C266.348 42.56 266.008 41.08 266.008 39.28C266.008 36.32 266.888 34.06 268.648 32.5C270.408 30.94 272.948 30.16 276.268 30.16C278.548 30.16 280.608 30.4 282.448 30.88C284.288 31.36 285.728 31.9 286.768 32.5L285.028 38.14C284.108 37.78 282.948 37.4 281.548 37C280.148 36.6 278.728 36.4 277.288 36.4C274.968 36.4 273.808 37.3 273.808 39.1C273.808 39.82 274.148 40.4 274.828 40.84C275.508 41.28 276.348 41.7 277.348 42.1C278.348 42.46 279.448 42.86 280.648 43.3C281.848 43.74 282.948 44.32 283.948 45.04C284.948 45.72 285.788 46.62 286.468 47.74C287.148 48.86 287.488 50.3 287.488 52.06C287.488 55.1 286.508 57.5 284.548 59.26C282.628 60.98 279.728 61.84 275.848 61.84C273.728 61.84 271.728 61.56 269.848 61C268.008 60.48 266.508 59.86 265.348 59.14L267.508 53.32C268.428 53.84 269.648 54.36 271.168 54.88C272.688 55.36 274.248 55.6 275.848 55.6C277.008 55.6 277.928 55.38 278.608 54.94C279.328 54.5 279.688 53.76 279.688 52.72ZM306.56 43.66L307.64 50.8H307.94L309.14 43.6L317.18 19H325.82L310.22 61.3H304.34L288.62 19H298.16L306.56 43.66ZM329.334 31H337.134V61H329.334V31ZM328.194 22.54C328.194 21.38 328.614 20.4 329.454 19.6C330.334 18.76 331.534 18.34 333.054 18.34C334.574 18.34 335.794 18.76 336.714 19.6C337.674 20.4 338.154 21.38 338.154 22.54C338.154 23.7 337.674 24.68 336.714 25.48C335.794 26.24 334.574 26.62 333.054 26.62C331.534 26.62 330.334 26.24 329.454 25.48C328.614 24.68 328.194 23.7 328.194 22.54ZM361.347 38.32C360.107 37.88 358.987 37.66 357.987 37.66C356.587 37.66 355.407 38.04 354.447 38.8C353.527 39.52 352.907 40.46 352.587 41.62V61H344.787V31H350.847L351.747 34.96H351.987C352.667 33.48 353.587 32.34 354.747 31.54C355.907 30.74 357.267 30.34 358.827 30.34C359.867 30.34 361.047 30.56 362.367 31L361.347 38.32ZM373.322 31V48.04C373.322 50.48 373.602 52.24 374.162 53.32C374.762 54.4 375.902 54.94 377.582 54.94C379.062 54.94 380.282 54.5 381.242 53.62C382.242 52.74 382.982 51.66 383.462 50.38V31H391.262V51.88C391.262 53.52 391.342 55.14 391.502 56.74C391.662 58.3 391.902 59.72 392.222 61H386.342L384.962 56.56H384.722C383.802 58.08 382.522 59.34 380.882 60.34C379.242 61.34 377.302 61.84 375.062 61.84C373.542 61.84 372.182 61.64 370.982 61.24C369.782 60.84 368.782 60.18 367.982 59.26C367.182 58.34 366.562 57.1 366.122 55.54C365.722 53.98 365.522 52.02 365.522 49.66V31H373.322ZM410.527 52.72C410.527 51.92 410.188 51.28 409.508 50.8C408.828 50.32 407.988 49.88 406.988 49.48C405.988 49.08 404.888 48.68 403.688 48.28C402.488 47.84 401.388 47.26 400.388 46.54C399.388 45.78 398.548 44.84 397.868 43.72C397.188 42.56 396.848 41.08 396.848 39.28C396.848 36.32 397.728 34.06 399.488 32.5C401.248 30.94 403.788 30.16 407.108 30.16C409.388 30.16 411.447 30.4 413.288 30.88C415.128 31.36 416.568 31.9 417.608 32.5L415.868 38.14C414.948 37.78 413.788 37.4 412.388 37C410.988 36.6 409.568 36.4 408.128 36.4C405.808 36.4 404.648 37.3 404.648 39.1C404.648 39.82 404.988 40.4 405.668 40.84C406.348 41.28 407.188 41.7 408.188 42.1C409.188 42.46 410.288 42.86 411.488 43.3C412.688 43.74 413.788 44.32 414.788 45.04C415.788 45.72 416.628 46.62 417.308 47.74C417.988 48.86 418.328 50.3 418.328 52.06C418.328 55.1 417.348 57.5 415.388 59.26C413.468 60.98 410.568 61.84 406.688 61.84C404.568 61.84 402.568 61.56 400.688 61C398.848 60.48 397.348 59.86 396.188 59.14L398.348 53.32C399.268 53.84 400.488 54.36 402.008 54.88C403.528 55.36 405.088 55.6 406.688 55.6C407.848 55.6 408.768 55.38 409.448 54.94C410.168 54.5 410.527 53.76 410.527 52.72Z" fill="#222121"/>
</svg>
